<svg xmlns="http://www.w3.org/2000/svg" id="Ebene_1" data-name="Ebene 1" viewBox="0 0 283.46 74.58"><defs></defs><path class="cls-1" d="M291.92,39.82C291.4,22,277.15,8.7,259,8.18c-1.22,0-8.2-.11-10.75-.11s-9.52.07-10.74.11C219.42,8.7,205.17,22,204.65,39.82c-.07,2.39-.07,8,0,10.44.52,17.86,14.77,31.12,32.89,31.64,2.43.07,7,.15,10.74.15S256.59,82,259,81.9c18.12-.52,32.37-13.78,32.89-31.64C292,47.87,292,42.21,291.92,39.82ZM275.6,52.21c-.59,9-7.43,14.49-16.59,15-1.53.08-3.93.42-10.73.42s-9.19-.34-10.72-.42c-9.16-.5-16-6-16.59-15-.06-.91-.19-4-.19-7.14s.13-6.28.19-7.19c.59-9,7.43-14.51,16.59-15,1.53-.09,3.93-.42,10.72-.42s9.2.33,10.73.42c9.16.49,16,6,16.59,15,.06.9.2,4,.2,7.16S275.66,51.3,275.6,52.21Z" transform="translate(-8.5 -8.07)"></path><path class="cls-1" d="M178,52.21c-.6,9-7.44,14.46-16.6,14.95-1.53.08-3.93.42-10.72.42s-9.19-.34-10.72-.42c-9.17-.49-16-6-16.6-14.95-.06-.91-.19-4-.19-7.14s.13-6.28.19-7.19c.6-9,7.43-14.51,16.6-15,1.53-.09,3.93-.42,10.72-.42s9.19.33,10.72.42c9.16.49,16,6,16.6,15V38h15.67c-1.4-16.92-14.76-29.29-32.25-29.8-1.22,0-8.19-.11-10.74-.11s-9.53.07-10.74.11C121.82,8.7,107.57,22,107.06,39.82c-.07,2.39-.07,8,0,10.44.51,17.86,14.76,31.12,32.89,31.64,2.43.07,7,.15,10.74.15S159,82,161.43,81.9c17.48-.5,30.82-12.86,32.25-29.76H178Z" transform="translate(-8.5 -8.07)"></path><path class="cls-1" d="M150.53,52.14H178c.06-1,.2-4,.2-7.1s-.13-6-.2-7.06H150.53Z" transform="translate(-8.5 -8.07)"></path><path class="cls-1" d="M95.82,39.82C95.33,22,81.05,8.7,62.93,8.18c-1.22,0-8.19-.11-10.74-.11s-9.53.07-10.74.11C23.32,8.7,9.07,22,8.55,39.82c-.06,2.39-.06,8,0,10.44.52,17.86,14.77,31.12,32.9,31.64,2.43.07,6.95.15,10.74.15V68c-6.79,0-9.19-.34-10.72-.42-9.17-.5-16-6.37-16.6-15.35-.06-.91-.19-4-.19-7.14s.13-6.28.19-7.19c.6-9,7.43-14.51,16.6-15,1.53-.09,3.93-.42,10.72-.42s9.19.33,10.72.42c9.16.49,16,6.14,16.6,15.12H52.18V52.15l43.66,0S96,48,95.82,39.82Z" transform="translate(-8.5 -8.07)"></path><path class="cls-1" d="M80.62,66s-2.47-.08-3.86-.08-4,.08-4,.08a6,6,0,0,0-6.07,5.88,38.66,38.66,0,0,0,0,4.82,6.09,6.09,0,0,0,6.07,5.89s2.24.09,3.76.09,4.06-.09,4.06-.09a6,6,0,0,0,6.07-5.89,28.59,28.59,0,0,0,0-4.82A6,6,0,0,0,80.62,66Z" transform="translate(-8.5 -8.07)"></path></svg>