<svg xmlns="http://www.w3.org/2000/svg" id="Ebene_1" data-name="Ebene 1" viewBox="0 0 718.96 265.55"><path d="M565.09,220.39v47.4q0,28.92-4.53,47.21t-16.91,28.58q-12.37,10.28-34.32,13.94t-56.8,3.66q-31.36,0-53.32-3.66t-35.55-14.64q-13.59-11-19.86-31.36T337.52,258V198.09q0-32.75,6.63-52.8t20.56-31q13.94-11,35.72-14.81t52.1-3.84q16,0,30.66.18a197.52,197.52,0,0,1,27.18,2.09,86.05,86.05,0,0,1,22.83,6.62,46.8,46.8,0,0,1,17.43,13.77q7.13,9.06,10.8,23.17t3.31,35H514.91q0-14.28-3.67-22.12A22.51,22.51,0,0,0,500.09,143q-7.48-3.48-19.34-4t-28.22-.52q-22,0-34.68,2.26t-19.34,8.72q-6.63,6.45-8.54,18.12a219.94,219.94,0,0,0-2.26,30.49V258q.35,20.57,2.61,32.58t9.06,18.12q6.8,6.11,19.52,7.84t33.63,1.74q17.76,0,29.79-.86t19.34-5.76q7.32-4.86,10.28-15.16t3-28.74v-9.42H449v-38Z" transform="translate(-95.63 -95.63)"></path><path d="M167.92,269.12v-28h58.61v-6.94q0-13.64-2.19-21.22t-7.59-11.18q-5.4-3.62-14.27-4.25t-22-.64a188.45,188.45,0,0,0-24.82,1.29q-9.39,1.28-14.4,5.78t-6.69,13.37a150.19,150.19,0,0,0-1.93,24v44.23a161.48,161.48,0,0,0,1.68,22.5q1.41,8.61,6.3,13.37t14.27,6.43q9.38,1.67,25.59,1.67,12.08,0,20.82-.39t14.28-3a16.68,16.68,0,0,0,8.23-8.36q2.7-5.79,2.7-16.33H263.3q.26,15.44-2.44,25.85a45.73,45.73,0,0,1-8,17.09A34.36,34.36,0,0,1,240,354.62a63.28,63.28,0,0,1-16.85,4.89,145.64,145.64,0,0,1-20.06,1.54q-10.78.12-22.62.13-22.38,0-38.45-2.83t-26.36-10.93q-10.29-8.1-15.17-22.88t-4.89-39V241.35q0-24.43,4.63-39.48t14.66-23.14q10-8.1,26.23-10.8t39.35-2.7q25.71,0,41.91,2.7t25.33,10.28q9.12,7.59,12.47,21.09t3.35,34.85v35Z" transform="translate(-95.63 -95.63)"></path><path d="M752.22,98.77q20.91,3.14,34.85,13.07t20.73,28.92q6.8,19,6.8,50.36v70.39q0,31.37-6.28,50.88t-19.86,30.32q-13.59,10.82-34.67,14.64t-50.71,3.83q-30.32,0-51.4-3.49t-34.15-14.11q-13.06-10.62-19-30.32t-5.93-51.75V191.12q0-30.31,5.58-49.14t18.47-29.09q12.89-10.27,34.15-13.77t52.27-3.49Q731.31,95.63,752.22,98.77ZM671,140.94q-11.85,2.44-17.94,8.36t-8,16a160.41,160.41,0,0,0-2.26,25.79v70.39q0,19.53,2.44,30.85t8.88,17.07q6.45,5.74,18.3,7.32a243.55,243.55,0,0,0,30.66,1.56,198.2,198.2,0,0,0,28.75-1.74q11.67-1.74,19-7.66t10.45-17.25q3.13-11.32,3.14-30.15V191.12q.35-18.47-3-28.93t-10.63-15.68q-7.32-5.22-19.17-6.62a251.75,251.75,0,0,0-28.58-1.39Q682.88,138.5,671,140.94Z" transform="translate(-95.63 -95.63)"></path><circle cx="208.43" cy="238.73" r="26.7"></circle></svg>